<svg xmlns="http://www.w3.org/2000/svg" fill="none" viewBox="0 0 39 40">
  <path fill="#fff" d="M38.037 32.188H29.75a.484.484 0 0 0 0 .97h8.287a.484.484 0 0 0 0-.97Zm0 6.152h-9.291a.484.484 0 0 0 0 .97h9.291a.484.484 0 0 0 0-.97ZM.481 35.692h7.493a.484.484 0 0 0 0-.971H.481a.484.484 0 0 0-.481.485c0 .27.216.486.481.486Z"/>
  <path fill="#fff" fill-rule="evenodd" d="M3.745.535A.478.478 0 0 1 4.3.628a.49.49 0 0 1 .088.56 4.27 4.27 0 0 0-.45 1.912c0 2.377 1.93 4.313 4.3 4.313.664 0 1.305-.154 1.907-.453a.478.478 0 0 1 .555.092.488.488 0 0 1 .09.56 5.231 5.231 0 0 1-4.711 2.94C3.177 10.552.816 8.18.816 5.266A5.258 5.258 0 0 1 3.745.535Zm5.383 7.772a5.156 5.156 0 0 1-.89.076c-2.902 0-5.262-2.37-5.26-5.284 0-.303.024-.6.075-.894a4.286 4.286 0 0 0-1.274 3.061c0 2.38 1.93 4.315 4.3 4.315a4.256 4.256 0 0 0 3.049-1.274ZM38.039 24.41h-.002a.484.484 0 0 0-.481.483l-.012 2.592L19.677.923c-.179-.267-.617-.267-.797 0L1.025 27.466l.012-2.75a.483.483 0 0 0-.48-.488H.555a.484.484 0 0 0-.481.483l-.017 4.342a.486.486 0 0 0 .481.487.485.485 0 0 0 .399-.212l2.81-4.177v3.905c0 .268.216.486.481.486h10.724a4.368 4.368 0 0 0 4.168 3.094l.019-.001a.226.226 0 0 1 .028 0h.027l.01-.002a4.366 4.366 0 0 0 4.081-3.091H34.33a.484.484 0 0 0 .482-.486v-3.905l2.81 4.177a.477.477 0 0 0 .538.191.485.485 0 0 0 .34-.463l.019-4.159a.482.482 0 0 0-.48-.487Zm-18.806 7.25h-.006l-.07.003a1.535 1.535 0 0 1-1.512-1.531c0-.552.805-1.822 1.531-2.78.726.958 1.531 2.228 1.531 2.78 0 .824-.656 1.497-1.474 1.528Zm2.435-1.53c0 .144-.018.28-.041.417.551-.607.89-1.409.886-2.29 0-1.454-2.19-4.548-3.397-6.088-1.205 1.54-3.397 4.636-3.397 6.088 0 .955.397 1.82 1.031 2.44a2.567 2.567 0 0 1-.07-.567c0-1.229 1.77-3.437 2.124-3.868a.496.496 0 0 1 .741 0c.355.43 2.123 2.64 2.123 3.868Zm-2.177-9.041a.496.496 0 0 0-.742 0c-.408.495-3.989 4.908-3.989 7.168 0 .076.005.151.01.226l.005.089H9.927v-3.2c.628-.512 2.71-2.287 4.818-4.92 1.712-2.137 3.666-5.157 4.552-8.6.886 3.445 2.84 6.463 4.551 8.6 2.109 2.633 4.19 4.408 4.82 4.92v3.2h-5.205c.007-.104.015-.209.015-.315.002-2.26-3.58-6.673-3.987-7.168Zm10.137 7.483h4.22l.003-4.852L19.28 2.061 4.71 23.721v4.85h4.252v-3.435c0-.151.07-.293.188-.384.117-.092 9.663-7.635 9.663-16.562 0-.267.217-.485.482-.485s.481.218.481.485c0 8.924 9.54 16.464 9.663 16.561a.49.49 0 0 1 .189.385v3.436Z" clip-rule="evenodd"/>
  <path fill="#fff" fill-rule="evenodd" d="M26.596 34.433a.488.488 0 0 1-.304.622l-1.781.593 1.711.487a.486.486 0 0 1 .331.605l-.615 2.09a.48.48 0 0 1-.592.327l-6.128-1.746-5.624 1.875a.474.474 0 0 1-.602-.301l-.709-2.061a.486.486 0 0 1 .303-.62l1.486-.495-1.785-.508a.485.485 0 0 1-.331-.605l.615-2.089a.48.48 0 0 1 .592-.33l6.201 1.767 5.917-1.973a.48.48 0 0 1 .606.301l.709 2.06ZM13.359 33.34l-.342 1.158 2.686.766 2.03-.677-4.374-1.247Zm12.131 3.594-.342 1.159-4.3-1.227 2.032-.677 2.61.745Zm-12.14.137.393 1.143 11.783-3.928-.393-1.143-11.783 3.928Z" clip-rule="evenodd"/>
</svg>