<svg xmlns="http://www.w3.org/2000/svg" xml:space="preserve" fill-rule="evenodd" stroke-linejoin="round" stroke-miterlimit="1.414" clip-rule="evenodd" viewBox="0 0 3326 586">
  <path fill="#0a1d3d" fill-rule="nonzero" d="M402.827 236.545c-2.155 0-3.968.056-4.988.17-1.19 2.154-2.948 5.045-5.556 9.07 40.587 0 77.433 3.344 118.19 10.656l-11.508 11.11c-36.789-6.518-67.342-9.125-106.285-9.125-5.668 0-6.858 0-8.218.056-1.362 2.04-4.423 6.008-7.483 9.694 3.457-.227 10.147-.34 19.385-.34 32.028 0 61.958 2.38 94.439 7.596l-11.508 11.166c-24.715-3.854-54.928-6.065-82.024-6.065-9.636 0-20.576.34-30.383.907-2.21 2.55-7.992 8.786-9.749 10.713 12.98-1.36 27.265-1.984 44.27-1.984 24.206 0 47.334 1.588 69.214 4.819l-11.508 11.053c-15.588-1.927-34.521-3.06-51.243-3.06-43.137 0-77.149 9.352-112.294 30.836 33.501 35.938 88.373 58.669 141.544 58.669h4.988l-18.592 17.972c-76.696-14.4-157.416-48.128-225.608-94.328-65.585-44.27-88.542-57.364-139.729-79.981l-.34-13.152 34.635 14.852 11.79-9.353 113.087 51.81-7.37 5.895-58.045-25.224-5.725 4.477 30.157 16.836c25.452 14.172 44.837 20.52 62.75 20.52 39.17 0 74.315-27.776 96.989-76.581 17.062-2.212 35.258-3.232 57.138-3.232 44.895 0 88.485 4.308 137.858 13.548l-12.017 11.62c-30.723-6.405-82.93-11.62-116.261-11.62M292.914 559.367c-147.117 0-266.455-119.339-266.455-266.455 0-147.117 119.338-266.457 266.455-266.457s266.455 119.34 266.455 266.457c0 147.116-119.338 266.455-266.455 266.455m0-549.919C136.16 9.448 9.449 136.156 9.449 292.912c0 156.755 126.71 283.464 283.465 283.464 156.756 0 283.465-126.709 283.465-283.464 0-156.756-126.71-283.464-283.465-283.464m748.883 396.31h162.52v76.13H954.33V103.935h87.467v301.823Zm359.056-195.996h81.527v272.126h-76.668v-31.316c-11.34 21.058-34.554 39.414-77.211 39.414-69.648 0-105.824-31.316-105.824-120.944v-159.28h81.53v155.499c0 36.177 15.659 52.373 48.594 52.373 29.696 0 48.052-16.196 48.052-52.373V209.762Zm144.162-10.257c0-65.87 41.577-100.969 106.908-100.969 21.06 0 34.555 3.24 34.555 3.24v65.87s-11.338-1.075-21.06-1.075c-25.375 0-38.875 8.638-38.875 32.394v10.797h59.935v66.412h-59.935v205.714h-81.528V276.174h-41.033v-66.412h41.033v-10.257m285.075 10.257h62.093v66.412h-62.093v105.827c0 29.157 15.12 36.716 38.88 36.716 9.72 0 23.213-1.62 23.213-1.62v65.331s-18.893 4.318-38.866 4.318c-65.333 0-104.747-29.695-104.747-95.564V276.174h-41.04v-66.412h41.04v-79.369h81.52v79.37Zm242.6-8.098c69.12 0 105.293 31.314 105.293 120.943v159.281h-81.534V326.386c0-36.173-15.653-52.37-49.666-52.37-30.787 0-49.133 16.197-49.133 52.37v155.502h-81.533V104.476h82.066v131.742c14.04-19.978 36.173-34.554 74.506-34.554m313.16 174.397c0 29.697-28.08 51.836-71.267 51.836-21.053 0-33.48-9.72-33.48-28.08 0-14.036 8.64-25.914 36.187-29.691l46.973-6.483c8.093-1.081 16.733-2.698 21.587-4.318v16.736Zm-45.347-174.396c-80.453 0-119.333 30.777-122.56 88.55h79.36c1.08-15.12 9.72-26.46 43.2-26.46 29.693 0 43.733 9.722 43.733 24.297 0 12.962-8.106 17.82-28.08 19.978l-51.826 5.399c-70.2 7.557-102.053 36.716-102.053 89.632 0 49.131 30.24 86.925 94.493 86.925 43.733 0 69.653-14.038 92.32-42.116v34.018h74.52V303.172c0-75.051-43.734-101.507-123.107-101.507m311.626-.001c70.733 0 106.906 31.314 106.906 120.943v159.281h-81.533V326.386c0-36.173-15.653-52.37-49.666-52.37-30.787 0-49.133 16.197-49.133 52.37v155.502h-81.534V209.764h76.667v31.317c11.347-21.06 34.56-39.417 78.293-39.417m278.893 109.605c69.106 9.181 103.666 30.777 103.666 87.47 0 57.233-40.493 91.248-126.346 91.248-93.4 0-126.347-37.252-127.96-91.79h80.453c2.16 19.98 16.187 29.7 47.507 29.7 31.853 0 44.813-7.562 44.813-22.678 0-14.037-10.8-20.516-38.867-24.296l-28.626-3.782c-59.933-8.098-94.48-31.314-94.48-85.308 0-51.833 38.333-90.17 118.786-90.17 74.507 0 114.467 29.697 118.24 88.55h-79.373c-2.693-15.655-11.333-25.376-38.867-25.376-27 0-37.253 9.18-37.253 21.06 0 11.875 6.48 18.354 29.693 21.596l28.614 3.776m307.759 64.797c0 29.693-28.08 51.83-71.267 51.83-21.066 0-33.48-9.718-33.48-28.078 0-14.037 8.64-25.915 36.174-29.692l46.973-6.483c8.107-1.076 16.733-2.698 21.6-4.318v16.741Zm-45.36-174.4c-80.44 0-119.32 30.776-122.56 88.548h79.373c1.08-15.12 9.72-26.454 43.187-26.454 29.707 0 43.747 9.717 43.747 24.296 0 12.958-8.107 17.815-28.08 19.974l-51.84 5.399c-70.187 7.561-102.04 36.717-102.04 89.632 0 49.131 30.227 86.925 94.48 86.925 43.733 0 69.653-14.038 92.333-42.116v34.018h74.506V303.172c0-75.047-43.733-101.507-123.106-101.507"/>
</svg>
