<svg xmlns="http://www.w3.org/2000/svg" xml:space="preserve" width="778" height="217" version="1.0" viewBox="0 0 595.3 841.9">
  <path fill="#53616f" fill-rule="evenodd" d="M-657.706 747.595c-6.477.429-12.759.819-19.196.819-7.297 0-14.32-.624-21.655-.82l21.186-50.722 19.665 50.723m23.567 57.434c3.746-.195 9.56-1.21 15.373-1.21 5.853 0 13.149 1.015 16.31 1.21-9.404-19.977-23.177-51.074-31.059-69.062-7.491-17.285-20.055-46.158-30.004-74.328-2.341.624-4.41 1.014-6.672 1.014-2.537 0-4.605-.43-6.985-1.014-4.994 16.855-17.09 43.7-38.12 90.248l-24.152 53.142c2.848-.39 5.814-1.21 9.364-1.21 3.317 0 7.297.82 9.989 1.21 3.355-11.745 9.988-28.834 16.66-44.715 8.35-.429 16.661-.819 25.05-.819 8.935 0 17.714.39 26.727.82l8.74 21.927 8.779 22.787z" clip-rule="evenodd"/>
  <path fill="#53616f" d="M-584.196 711.308c0 35.194 0 69.218-2.302 93.72 4.604-.194 10.495-1.209 15.06-1.209 4.76 0 9.755 1.015 14.554 1.21-1.639-16.66-2.068-38.94-2.068-69.608 0-20.835 0-56.459 2.302-71.714-5.033.624-10.183 1.248-14.788 1.248-3.121 0-10.847-.82-14.826-1.248 2.068 19.938 2.068 34.608 2.068 47.601"/>
  <path fill="#53616f" fill-rule="evenodd" d="M-460.198 735.03c18.924-3.472 36.286-15.294 36.286-38.158 0-8.662-3.355-17.09-9.559-23.099-8.974-8.428-19.236-10.066-32.736-10.066-4.838 0-29.029 1.014-34.452 1.014-10.613 0-16.076-.624-20.836-1.014 1.483 26.57 1.483 29.419 1.483 56.458 0 39.72-.273 44.285-1.873 84.864 4.565-.586 9.56-1.21 14.358-1.21 5.229 0 9.794.82 13.93 1.21 0-5.346-.82-31.917-.82-37.926V737.88h5.073c11.237 15.607 24.19 33.75 34.764 50.06 3.16 4.682 7.726 12.33 10.847 17.09 6.282-.82 8.78-1.21 16.895-1.21 7.491 0 12.72.663 18.573 1.21-13.11-16.232-18.729-23.45-35.194-46.353-3.16-4.253-7.726-11.081-10.847-15.451l-5.892-8.194m-34.219-60.165c3.122-.235 10.886-1.054 14.866-1.054 6.867 0 13.734 1.054 19.353 5.19 7.296 5.384 8.779 12.758 8.779 21.46 0 13.382-7.726 28.443-28.522 28.443-5.502 0-10.496-.468-14.437-.702v-53.337h-.039z" clip-rule="evenodd"/>
  <path fill="#53616f" d="M-351.612 756.803c-9.754-28.6-23.41-68.788-29.848-93.096-5.229.819-9.755 1.248-14.593 1.248-4.994 0-12.134-.82-16.27-1.248 8.506 22.24 15.84 42.022 21.498 57.668 9.599 26.844 15.803 45.377 23.372 68.008l5.228 15.646c2.888-.586 6.243-1.21 8.545-1.21 2.302 0 4.37.39 7.92 1.21 3.317-10.73 7.297-23.88 10.224-32.307 8.115-23.489 9.169-26.805 19.82-56.068l6.204-17.09c2.341 6.594 6.321 17.09 8.584 23.684 2.302 6.398 12.954 37.886 15.412 44.909 3.395 9.247 4.175 11.978 11.9 36.833 1.952-.195 5.814-1.21 8.975-1.21 2.926 0 5.228.663 8.35 1.21 7.96-24.503 8.818-26.962 20.406-59.97 11.471-32.151 18.533-50.45 31.097-81.353-3.16.82-6.243 1.25-9.403 1.25-3.98 0-7.297-.664-9.599-1.25-7.491 26.767-11.276 39.76-17.246 57.474-9.871 28.834-11.08 32.15-17.09 47.874-6.671-17.753-13.148-35.7-19.157-53.805-3.356-9.872-16.075-51.113-16.27-51.503-2.927.624-5.034 1.248-9.17 1.248-3.706 0-6.437-.82-9.169-1.248-6.282 25.127-28.405 85.721-30.434 91.262l-5.228 13.422-4.058-11.588"/>
  <path fill="#53616f" fill-rule="evenodd" d="M-141.306 747.595c-6.438.429-12.681.819-19.158.819-7.257 0-14.358-.624-21.655-.82l21.265-50.722 19.548 50.723m23.606 57.434c3.784-.195 9.559-1.21 15.45-1.21 5.775 0 13.11 1.015 16.193 1.21-9.325-19.977-23.099-51.074-30.98-69.062-7.53-17.285-20.133-46.158-30.083-74.328-2.263.624-4.33 1.014-6.633 1.014-2.458 0-4.643-.43-6.906-1.014-4.994 16.855-17.09 43.7-38.16 90.248l-24.151 53.142c2.848-.39 5.813-1.21 9.286-1.21 3.433 0 7.335.82 10.105 1.21 3.317-11.745 10.028-28.834 16.7-44.715 8.272-.429 16.66-.819 24.971-.819 8.974 0 17.714.39 26.689.82l8.779 21.927 8.74 22.787z" clip-rule="evenodd"/>
  <path fill="#53616f" d="M-30.184 749.819c0-1.834 1.249-4.097 2.692-6.594 8.78-14.827 16.895-30.317 26.26-45.105 3.12-4.994 18.338-28.873 21.498-34.413-2.302.819-4.604 1.248-8.779 1.248-4.604 0-8.818-.663-12.134-1.248-15.022 32.54-18.339 39.563-36.014 69.607-17.753-30.668-25.673-46.938-36.52-69.607-6.048 1.014-12.135 1.248-17.09 1.248-4.604 0-9.403-.43-17.09-1.248 10.77 17.948 28.522 46.353 39.174 64.457l12.252 21.07c0 12.72-.625 39.758-1.21 55.795 3.94-.39 9.754-1.21 13.93-1.21 4.799 0 9.637.82 14.436 1.21-.82-19.158-1.483-30.239-1.483-47.602v-7.608m62.585 24.347c-1.054 9.871-1.288 12.524-4.878 23.254 7.53 3.746 21.109 10.535 39.018 10.535 38.16 0 52.87-24.074 52.87-45.065 0-5.814-1.445-17.988-10.145-27.235-6.048-6.594-12.33-8.896-28.327-15.06-18.378-6.985-29.03-11.12-29.03-26.143 0-12.212 8.155-22.279 24.62-22.279 13.072 0 24.192 6.165 27.313 17.949h2.848c1.912-7.843 2.341-9.443 6.477-19.626-10.183-4.487-19.391-8.428-34.608-8.428-37.73 0-48.616 23.098-48.616 41.241 0 17.09 6.086 27.625 26.297 36.521 5.853 2.458 15.686 6.165 21.538 8.662 3.98 1.6 17.09 7.374 17.09 23.684 0 14.827-10.847 25.751-27.312 25.751-12.291 0-22.787-3.12-32.307-23.683h-2.848"/>
  <path fill="#63003c" fill-rule="evenodd" d="M-1125.918 393.392c0-155.759 84.434-197.82 148.267-197.82 102.617 0 147.019 84.083 147.019 173.746 0 51.23-6.243 99.495-31.956 138.474-25.595 38.9-68.086 62.389-114.439 62.389-115.726-.039-148.891-108.781-148.891-176.79m311.517 318.346c18.69-12.954 48.07-29.029 69.413-38.315l-141.362-86.58c86.932-30.24 141.362-106.909 141.362-211.398 0-148.346-114.517-211.36-231.454-211.36-126.26 0-235.12 69.179-235.12 226.225 0 33.321 7.491 96.413 59.97 148.931 54.469 54.469 118.887 62.467 173.278 62.467 6.867 0 13.773 0 20.601-.624l143.312 110.654zm361.148-291.189c-19.392 1.288-38.16 2.536-57.512 2.536-21.928 0-43.193-1.873-65.004-2.536l63.755-152.013 58.761 152.013m70.74 172.536c11.236-.663 28.716-3.784 46.274-3.784s39.408 3.121 48.811 3.784c-28.21-60.009-69.451-153.34-93.252-207.145-22.474-51.932-60.01-138.474-90.053-223.181-6.867 1.912-13.149 3.16-20.055 3.16-7.491 0-13.773-1.248-20.601-3.16-15.022 50.762-51.27 131.1-114.478 270.744l-72.534 159.543c8.818-1.248 17.48-3.784 28.17-3.784 9.99 0 21.89 2.497 30.044 3.784 9.989-35.233 30.083-86.619 50.02-134.182 25.05-1.21 50.06-2.458 75.071-2.458 26.844 0 53.181 1.21 80.064 2.458l26.22 65.55 26.298 68.671z" clip-rule="evenodd"/>
  <path fill="#63003c" d="M-105.02 279.655c0-23.528.664-46.938 1.249-69.256 43.114 0 87.556.702 124.466 4.37-1.912-9.91-3.16-15.451-3.16-22.24 0-4.995 1.248-13.032 3.16-23.49-60.048 3.044-115.102 3.708-167.035 3.708-48.147 0-117.599-.664-166.995-3.707 1.912 7.374 3.121 15.412 3.121 22.864 0 7.375-1.21 15.451-3.121 22.865 31.916-3.122 92.003-4.37 97.622-4.37h31.253c.663 24.152 1.249 45.767 1.249 68.632l.663 172.458c0 47.016-3.785 94.657-6.282 141.634 22.513-2.458 31.878-3.784 42.53-3.784 7.452 0 27.585 1.912 45.69 3.784-1.874-17.323-4.37-37.73-4.37-84.746V279.655"/>
  <path fill="#63003c" fill-rule="evenodd" d="M243.135 420.548c-19.43 1.288-38.198 2.536-57.55 2.536-21.89 0-43.193-1.873-65.121-2.536l63.833-152.013 58.838 152.013m70.661 172.536c11.199-.663 28.757-3.784 46.276-3.784 17.518 0 39.368 3.121 48.733 3.784-28.171-60.009-69.335-153.34-93.175-207.145-22.474-51.932-60.009-138.474-90.053-223.181-6.945 1.912-13.188 3.16-20.055 3.16-7.452 0-13.734-1.248-20.64-3.16-14.983 50.762-51.23 131.1-114.439 270.744L-2.052 593.045c8.74-1.248 17.48-3.784 28.093-3.784 10.027 0 21.85 2.497 30.082 3.784 10.067-35.233 30.044-86.619 50.021-134.182 24.972-1.21 49.982-2.458 75.031-2.458 26.922 0 53.142 1.21 80.104 2.458l26.259 65.55 26.258 68.671zm346.946-210.188c56.888-10.535 108.781-45.768 108.781-114.4 0-25.986-10.027-51.308-28.756-69.217-26.844-25.323-57.55-30.24-98.207-30.24-14.359 0-86.893 3.044-103.202 3.044-31.878 0-48.148-1.873-62.584-3.043 4.409 79.713 4.409 88.375 4.409 169.376 0 119.277-.664 132.855-5.658 254.668 13.773-1.872 28.756-3.784 43.115-3.784 15.646 0 29.419 2.497 41.944 3.784 0-16.114-2.498-95.827-2.498-113.775v-87.751h14.983c33.79 46.938 72.573 101.368 104.49 150.218 9.325 14.242 23.176 37.067 32.54 51.308 18.768-2.458 26.26-3.784 50.645-3.784 22.514 0 38.16 1.912 55.64 3.784-39.408-48.85-56.264-70.505-105.66-139.098-9.364-12.993-23.177-33.399-32.541-46.353l-17.44-24.737m-102.58-180.535c9.365-.585 32.463-3.082 44.403-3.082 20.64 0 41.28 3.082 58.175 15.45 21.889 16.076 26.22 38.277 26.22 64.224 0 40.188-23.099 85.37-85.644 85.37-16.27 0-31.292-1.248-43.115-1.872V202.36h-.039z" clip-rule="evenodd"/>
  <path fill="#77838f" d="M1595.646 384.067c0 3.94-56.615 7.686-137.382 10.846-14.241-8.037-25.127-16.075-33.009-22.981 97.974 3.473 170.39 7.647 170.39 12.135m-58.019-134.846c0 3.278-47.523 6.438-115.297 9.091 9.754-5.657 19.782-11.276 30.2-16.972 51.308 2.419 85.097 5.072 85.097 7.881m-505.513 290.136c-31.41.351-58.956.507-80.494.507-30.902 0-55.99-9.403-55.99-21.147 0-11.589 25.088-20.992 55.99-20.992 27.508 0 64.653.273 107.22.82-16.465 23.527-24.346 37.652-25.048 38.471-.469.663-1.054 1.483-1.678 2.341m16.894 28.249c10.457 12.33 20.329 22.747 33.634 34.101 0 0 4.994 7.063 20.21.976 15.452-6.165 28.562-14.71 43.389-34.297 43.153.703 89.038 1.678 134.103 2.692 3.746 5.307 11.238 16.349 20.563 30.005-125.715 3.239-262.16 5.15-332.041 5.15-29.146 0-52.752-8.935-52.752-19.899 0-10.925 23.567-19.86 52.752-19.86 21.265 0 48.655.156 80.103.547-.078.273.04.585.04.585m-48.617 103.631c-25.83 0-46.743-7.882-46.743-17.558 0-9.715 20.914-17.597 46.743-17.597 68.398 0 208.472 2.068 328.49 5.423 5.775 8.194 11.55 16.349 17.09 23.801-123.608 3.55-273.943 5.93-345.58 5.93m398.566 56.264c-100.782 4.37-274.021 7.336-346.048 7.336-20.289 0-36.716-6.243-36.716-13.812 0-7.609 16.466-13.813 36.716-13.813 68.905 0 230.556 2.614 332.626 6.711a405.8 405.8 0 0 0 13.422 13.578m-262.94 37.38c59.424 0 240.427 4.447 240.427 9.793 0 5.501-181.003 9.793-240.427 9.793-11.627 0-20.953-4.292-20.953-9.793 0-5.346 9.365-9.794 20.953-9.794m.663-361.655c-74.758 1.249-141.907 1.99-185.06 1.99-30.903 0-55.991-9.481-55.991-21.108 0-11.667 25.088-21.148 55.99-21.148 50.177 0 132.543.975 221.855 2.614a1050.098 1050.098 0 0 0-36.794 37.652m367.04-94.306c43.856 2.341 71.402 4.878 71.402 7.57 0 2.965-33.36 5.774-85.058 8.35 11.08-8.272 13.46-15.451 13.656-15.92m-534.855 27.43c-29.146 0-52.752-8.935-52.752-19.86 0-10.925 23.567-19.9 52.752-19.9 59.697 0 168.088 1.444 276.792 3.864-13.305 11.08-25.986 22.084-37.925 32.891-95.399 1.873-186.076 3.005-238.867 3.005m324.862-74.056c-111.162 2.77-231.57 4.487-293.375 4.487-25.83 0-46.743-7.842-46.743-17.558 0-9.715 20.914-17.636 46.743-17.636 68.203 0 207.926 2.146 327.788 5.502-5.97 4.253-12.056 8.584-18.104 13.07-5.502 4.02-10.964 8.116-16.31 12.135M1052.91 195.61c-20.29 0-36.717-6.164-36.717-13.811 0-7.648 16.466-13.813 36.716-13.813 76.397 0 267.115 3.278 363.88 8.077-6.165 4.019-12.291 8.155-18.573 12.29-100.9 4.332-273.514 7.258-345.307 7.258M945.845 472.91c-31.488 0-57.044-9.56-57.044-21.538 0-11.822 25.556-21.42 57.044-21.42 39.564 0 98.597.585 165.513 1.56a939.521 939.521 0 0 0-32.853 40.266c-53.181.703-99.73 1.132-132.66 1.132m169.219-344.76c0-5.463 9.326-9.794 20.953-9.794 59.424 0 240.427 4.33 240.427 9.793 0 5.385-181.003 9.833-240.427 9.833-11.588 0-20.953-4.448-20.953-9.833"/>
  <path fill="#63003c" d="M1601.615 435.53a357.82 357.82 0 0 1-.156 31.722c-105.387 4.097-205.194 10.418-205.194 17.441 0 6.906 97.622 13.15 201.722 17.246-1.873 11.861-4.214 23.528-7.14 34.92-102.578 4.176-197.781 10.263-197.781 17.13 0 6.633 88.843 12.563 187.363 16.738-4.565 12.369-9.677 24.464-15.451 36.053-84.513 3.98-154.393 9.364-154.393 15.217 0 5.462 61.062 10.534 137.966 14.397-4.253 6.945-8.818 13.812-13.5 20.25-4.994 7.023-10.418 13.93-16.231 20.758-48.109 3.667-81.079 7.686-81.079 12.134 0 3.746 23.645 7.297 60.048 10.457-19.899 19.47-43.387 37.652-71.051 53.454 0 0-32.697-27.741-59.502-60.165-24.035-28.912-74.875-105.075-86.97-122.165-11.979-17.09-19.822-22.084-33.829-17.09-18.806 6.556-40.695 9.911-47.445 9.911-6.711 0-10.418-2.614.897-7.062 11.198-4.448 55.6-25.205 77.372-67.969 24.581-48.148 2.965-114.712 2.965-114.712-8.193 35.545-26.883 48.85-26.883 48.85 6.009-33.009-.585-62.974-17.09-84.005l-9.208 41.827s-5.774-.273-20.016 11.55c-14.28 11.86-18.182 29.146-18.182 29.146 11.237 4.448 24.698-6.633 24.698-6.633-17.207 63.637-41.866 115.453-59.931 142.882-17.987 27.39-32.814 37.73-50.84 44.91-15.217 6.048-20.211-.976-20.211-.976-13.305-11.354-23.216-21.772-33.634-34.101 0 0-.819-1.444 1.99-1.366 7.453.078 20.64-12.485 23.567-17.636 3.277-5.93 2.926-10.496 1.21-10.808-1.561-.312-4.41 4.41-18.69 13.383-14.28 8.896-20.796 2.654-25.518-2.263-3.667-3.94-.117-8.818 2.264-11.9 2.146-2.692 77.294-141.283 276.284-286.858C1570.791 59.36 1737.241 7.897 1746.761 4.15c6.321-2.458 16.622-5.697 18.924-3.317 2.614 2.654 3.863 4.8 3.512 7.921-.313 3.082-2.03 4.682-14.047 9.91-100.08 43.583-216.9 116.234-283.308 158.53-81.625 39.33-159.543 95.437-162.43 96.763-6.282 3.863-1.639 9.443 2.185 7.14 137.85-90.637 299.578-152.324 478.123-202.93 8.545-2.459 13.227-2.459 14.631-.508 1.561 2.03 2.263 4.37 2.498 6.984.234 3.239-2.458 4.956-9.794 7.804-191.85 70.427-333.29 135.82-424.279 196.337 0 0-9.442 5.619-9.52 12.135-.039 2.458 5.072 2.731 5.072 2.731 45.573.82 106.402 3.512 135.353 5.15 0 0-4.136 14.515-31.878 26.181-21.42 8.974-41.163 7.53-60.828 7.726-4.41-.117-8.038 4.253-4.565 8.896 1.795 2.302 43.543 68.71 195.205 83.927M211.219 782.789h-25.713s-3.511-15.607 5.775-21.655c9.364-6.048 19.938-10.691 19.938-10.691v32.346m121.97-58.527s-15.647 8.896-25.518 17.558c-9.872 8.623 2.029 11.94 2.029 11.94v29.029h-74.641v-101.68s-27.157 24.737-29.693 28.014c-2.614 3.512 6.438 6.672 6.438 6.672l-1.522 9.599s-10.807 5.58-23.995 14.397c-13.071 8.662-22.748 19.704-22.748 27.39 0 7.648-3.277 37.887-3.277 37.887h172.965v-80.806h-.039zm-154.433-37.223c8.506 0 14.515-3.316 14.515-9.988 0-6.75-4.058-11.433-14.515-11.433-9.364 0-11.861 4.058-11.861 11.433.039 7.413 3.2 9.988 11.861 9.988zm31.8 0c8.623 0 14.397-3.316 14.397-9.988 0-6.75-3.94-11.433-14.397-11.433-9.404 0-11.862 4.058-11.862 11.433 0 7.413 3.239 9.988 11.862 9.988zm48.147 126.73c-9.247 0-11.86 3.98-11.86 11.354 0 7.335 3.316 10.027 11.86 10.027 8.545 0 14.593-3.316 14.593-10.027 0-6.75-3.94-11.354-14.593-11.354zm33.087 0c-9.325 0-11.86 3.98-11.86 11.354 0 7.335 3.355 10.027 11.86 10.027 8.662 0 14.554-3.316 14.554-10.027 0-6.75-3.94-11.354-14.554-11.354zm372.62-128.68c8.584 0 14.553-3.278 14.553-9.99 0-6.671-3.94-11.392-14.553-11.392-9.247 0-11.784 4.018-11.784 11.393 0 7.452 3.278 9.988 11.784 9.988zm33.048 0c8.506 0 14.475-3.278 14.475-9.99 0-6.671-4.019-11.392-14.475-11.392-9.365 0-11.9 4.018-11.9 11.393.038 7.452 3.277 9.988 11.9 9.988zm91.184 2.77c-4.643 3.98-3.277 8.778 2.614 8.076v109.289h24.503V669.169c0-.039-22.552 14.67-27.117 18.69zm-98.48 61.296h-15.803c0-8.662 15.802-13.422 15.802-13.422v13.422zM585.75 767.182c0 3.98-.195 10.417-.351 15.607H446.964v-24.074c3.629-9.209 9.754-10.301 19.197-10.301h101.134c21.85 0 18.455 11.315 18.455 18.768zm161.885-71.325v86.97h-32.97v-78.971s-6.75 2.536-15.959 6.594c-9.13 4.058-42.295 17.363-42.295 35.35v20.796h33.711v16.232H610.02c.117-3.824.156-9.443.156-17.636 0-25.947-22.318-40.033-42.256-40.033h-92.55c-16.192 0-24.035 3.902-28.444 8.311v-66.954s-14.437 10.027-25.088 17.987c-10.574 7.999 0 13.383 0 13.383v84.98H391.52l-.703-72.923s-21.07 15.255-27.117 19.899c-5.93 4.604-2.614 8.74 3.98 8.74 0 0-1.21 53.883-1.21 66.564 0 12.798-10.612 27.39-33.165 20.757 0 0-7.179 1.327-1.21 6.672 5.931 5.307 13.072 9.325 21.031 9.325 7.96 0 37.067-5.462 37.067-36.754h381.789V669.169s-22.436 14.67-27.04 18.69c-4.643 3.862-3.316 8.622 2.693 7.998z"/>
</svg>
