<svg xmlns="http://www.w3.org/2000/svg" xml:space="preserve" viewBox="0 0 652 652">
  <path fill="#00418D" d="M146.1 288.8c-.4 10.8 9.8 13.5 18.8 16 7.3 1.9 14.1 3.8 14.1 9.6 0 3.9-3.1 8.4-11.9 8.4-6.6 0-12.1-2.8-16-8l-.2-.3-6.8 4.8.2.3c5.1 6.4 13.7 10.2 23 10.2 9.7 0 20.2-4.9 20.2-15.8 0-11.4-10.6-14.4-20-17-6.9-1.9-12.9-3.6-12.9-8.3 0-4.7 3.7-7.4 9.9-7.4 5.6 0 9.8 2.1 14.4 7.3l.2.3 6-4.9-.2-.3c-3.8-5.3-12.1-9.3-19.7-9.4-11.5-.2-18.8 5.4-19.1 14.5m87.8-13.5h-8.2v39.6c-3.9 3.8-10.5 7.8-15.9 7.8-6.2 0-8.9-2.8-8.9-9v-38.5h-8.6V314c0 9.9 6.2 15.8 16.7 15.8 5.8 0 11.7-2.8 16.7-7.9v6.9h8.6v-53.4h-.4m17.7 6.7v-6.9H243v53.4h8.5V289c3.9-3.8 10.5-7.8 15.9-7.8 6.2 0 8.9 2.8 8.9 9v38.5h8.6V290c0-9.9-6.2-15.8-16.7-15.8-5.7.1-11.6 2.9-16.6 7.9M356.5 302c0 16.9 9.2 27.7 23.6 27.7 14.3 0 23.6-10.9 23.6-27.7 0-16.8-9.3-27.7-23.6-27.7s-23.6 10.9-23.6 27.7m8.6 0c0-13 5.6-20.7 15-20.7s15 7.8 15 20.7c0 13-5.6 20.7-15 20.7s-15-7.7-15-20.7m86.6-26.7h-8.2v39.6c-3.9 3.8-10.5 7.8-15.9 7.8-6.2 0-8.9-2.8-8.9-9v-38.5h-8.6V314c0 9.9 6.2 15.8 16.7 15.8 5.8 0 11.7-2.8 16.7-7.9v6.9h8.6v-53.4h-.4m19.1 7-.2.3v-.3h.2m-.2-.3v-6.9H462v53.4h8.6V289c3.9-3.8 10.4-7.8 15.9-7.8 6.2 0 8.9 2.8 8.9 9v38.5h8.6V290c0-9.9-6.2-15.8-16.7-15.8-5.8.1-11.7 2.9-16.7 7.9m55.3-24.2h-8.2v17.3h-9.3v7h9.3v38.4c0 7.6 4.8 9.1 12.5 9.1 4.7 0 7.9-.4 9.3-.8l.3-.1v-6.7l-.4.1c-2.3.3-4.6.5-6.9.5-5.4 0-6.1-1.8-6.1-3.3v-37.2h13.1v-7h-13.1v-17.3h-.5m47 16.6c-9.5 0-14.1 4.1-18.3 10.8v-9.9H546v53.4h8.6v-29.6c4-11.6 9.3-16.5 18.3-16.7h.3v-8h-.3m53.5 1.2-28.2 71.9h-9.4l9.4-21.9-19.1-50h9.5l14.3 39 14.4-39zm-288.8 54c-3.6 0-6.9-.5-9.9-1.7-3-1.1-5.6-2.8-7.8-5.1s-3.8-5.1-5-8.5c-1.2-3.4-1.8-7.5-1.8-12.1s.6-8.6 1.9-12c1.2-3.4 2.9-6.2 5-8.5s4.7-4 7.8-5.3c3.1-1.2 6.4-1.9 10-1.9 2.9 0 5.7.4 8.4 1.2 2.7.8 5.1 1.7 7.2 2.8v9.9h-.5c-.6-.5-1.4-1.1-2.4-1.8s-2.2-1.4-3.6-2.1c-1.2-.6-2.7-1.2-4.3-1.6-1.7-.5-3.3-.7-4.8-.7-4.6 0-8.3 1.7-11.1 5.2-2.8 3.5-4.2 8.4-4.2 14.7 0 6.2 1.3 11 4 14.5s6.4 5.2 11.2 5.2c2.9 0 5.6-.6 8.3-1.8 2.6-1.2 4.9-2.7 6.9-4.5h.5v9.9c-.9.4-2 .9-3.3 1.5-1.3.6-2.5 1-3.6 1.3-1.5.4-2.9.8-4.1 1-1.4.3-2.9.4-4.8.4M94.9 283.5c-2.3-.4-4.4-.8-6.4-1.3s-4.3-.8-7-.8c-6.1 0-10.8 1.3-14.3 3.8s-5.2 5.7-5.2 9.4c0 2.8 1.3 5.1 3.8 7.1 2.6 1.9 5.3 3.6 8.3 5 3 1.4 5.7 2.8 8.3 4.3 2.6 1.5 3.8 3.3 3.8 5.4 0 1.7-.6 3.1-1.9 4.1-1.3 1-3.3 1.9-6.2 1.5-2.5-.3-3.7-1.1-6.7-3.4s-4.3-5.3-5.3-8.8c0-.2-.2-.3-.6-.4-.3-.1-.7-.1-1-.1-.3 0-.7 0-1.1.2-.4.1-.6.2-.6.3.1 1.8.2 4 .2 6.3 0 2.4 0 4.3.1 5.7 3.2.5 5.4 1.4 7.9 2.2 2.5.8 3.6 1.3 7.1 1.3 5.7 0 10.4-1.6 14.2-4 3.8-2.4 5.7-5.7 5.7-10 0-2.9-1.3-5.4-3.8-7.3-2.6-1.9-5.3-3.6-8.2-5-3.1-1.5-5.9-2.9-8.4-4.3s-3.7-3.1-3.7-5.1c0-1.5.7-2.8 2-3.7 1.3-1 3.1-1.5 5.5-1.5 2.7 0 4.9.9 6.8 2.6 1.8 1.8 3.2 4.2 4.2 7.3.1.2.3.3.7.4.3.1.7.1 1 .1.2 0 .6 0 1-.2.4-.1.6-.2.6-.3-.2-1.4-.4-3.2-.5-5.4-.2-2.2-.3-4-.3-5.4"/>
  <path fill="#EF820D" d="M98.4 297.3c.8-.8 1.1-1.6 1.2-2.3l.1-.1v-1.3c-.1-.8-.2-1.8-.3-2.9l15.9-3.5-16.9 10.1m-3.4-2.7c-.4.1-.7.2-1 .2-.3 0-.7 0-1-.1-.3-.1-.6-.2-.7-.4-.9-3.1-2.3-5.5-4.2-7.3-1.8-1.8-4.1-2.7-6.7-2.7-2.3 0-4.1.5-5.5 1.5-1.3 1-2 2.2-2 3.7 0 2 1.2 3.7 3.7 5.1 2.5 1.4 5.3 2.8 8.4 4.3 2.9 1.4 5.6 3.1 8.2 5 2.6 1.9 3.8 4.4 3.8 7.3 0 4.2-1.9 7.6-5.6 10-3.8 2.4-8.5 4-14.2 4-3.5 0-4.6-.5-7.1-1.3s-4.7-1.7-7.9-2.2c0-1.4-.1-3.3-.1-5.7 0-2.4-.1-4.5-.2-6.3 0-.1.2-.2.6-.3.4-.1.8-.1 1.1-.1.3 0 .7 0 1 .1.3.1.5.2.6.4.9 3.5 2.3 6.5 5.3 8.8 3 2.3 4.2 3 6.7 3.4 2.8.4 4.9-.5 6.2-1.5 1.3-1 1.9-2.4 1.9-4.1 0-2.1-1.3-3.9-3.8-5.4-2.6-1.5-5.3-2.9-8.3-4.3-3-1.4-5.8-3.1-8.3-5-2.6-1.9-3.8-4.3-3.8-7.1 0-3.7 1.7-6.8 5.2-9.4 3.5-2.5 8.2-3.8 14.3-3.8 2.7 0 5 .3 7 .8s4.1 1 6.4 1.3c0 1.4.1 3.2.3 5.4.1 2.2.3 3.9.5 5.4-.2.1-.4.2-.8.3m-6.5 33.2.8-.4c1.1-.4 2.2-.9 3.2-1.4l2.6 11.3-6.6-9.5zM66 337.5l1.9-10.3 3.7 1.2-5.6 9.1zm7.3-59.7-4.7 1.5-3-12.9 7.7 11.4zm22-10.7-2.7 11.8c-1.1-.2-2.1-.5-3.1-.7-.6-.2-1.2-.3-1.8-.4l7.6-10.7zm6.7 41.2 13.3 8.3L102 314c.2-.9.2-1.8.2-2.8 0-.9-.1-1.7-.2-2.5v-.4zm-42.8-.2c-.3.7-.3 1.4-.3 1.6v.4c.1 1.1.2 2.4.2 3.8l-14 3.1 14.2-9v.1zm-1.3-13.6c0 .4 0 .8.1 1.2l-12.7-8.5 13.3 3.1c-.6 1.5-.7 3-.7 4.2m66.6-3.2c-2-8.2-6.2-15.6-11.9-21.4l.1.2-13.4 17-.3-2.1c-.1-2.4-.2-5-.2-5h-.1l17.8-18.4-12.2 1.6h-.2c-6.9-4.3-15.1-6.8-23.8-6.8h.2l2.9 20.7-2.9.2c-.9 0-1.8.1-2.7.1V248l-7.4 9.5c-8.5 1.9-16 6.1-22 12l.3.3 15.6 12.3c-1.7 1.3-2.9 2.7-3.9 4l-20-20.8 1.3 12.3v.2c-4.3 7-6.8 15.2-6.8 24.1v.2l3.1-.5 20.4-2.8.5.6c.7 1.7 1.9 3.4 3.9 4.9l.2.3-36.6.2 9.3 7.1.3.2c2 8.8 6.6 16.7 12.9 22.7l.2-.3 10-13.3.1 4v.1l2.5.3.6.1-17.1 17 11.9-1.5.3-.1c6.8 4 14.6 6.3 23 6.3h1.3l-2.6-18.1.6-.1c1.4-.1 2.7-.2 4-.4l.9-.1v26.9l7.4-9.5v-.2c11.4-2.3 21-12.6 21-12.6l-14.9-11.7c1.3-1.4 2.3-2.9 3-4.7l20.5 20.4L120 324l.2-.3c3.5-6.5 5.5-13.9 5.5-21.7v-.5l-25.1 3.3-.1-.1c-.9-1.5-2.2-2.9-3.7-4.1-.7-.5-1.4-1-2.1-1.4l-.4-.3 39.8-.2-9.6-7.4z"/>
  <path fill="#00418D" d="M430.9 379.6c-17.4 3.8-19.7 7.4-19.7 12.2 0 4.2 2.8 6.5 6.8 6.5 4.1 0 9.1-2.4 12.9-6.3v-12.4m.8 21.5-.6-4.6c-4.5 3.6-8 5.3-13.8 5.3-5.9 0-10.5-3.7-10.5-9.9 0-10.4 8.5-12.3 24.3-15.8v-2.6c0-5-2.2-7.6-8.7-7.6-4.5 0-8.3 2.5-11 6.9l-2.9-1.7c3.3-6.1 8-8.6 14.1-8.6 8.6 0 12.7 3.5 12.7 11.9v19.9c0 1.9.1 4.4.6 6.9h-4.2zm20.1 0h-4.4v-38h4.4v38zm-4.4-52.8h4.4v6.4h-4.4v-6.4zm16 52.8v-38h4.4v7.2h.1c2-4.7 6.1-8 11-8h2v4.2h-2c-4.8 0-11.1 5.7-11.1 13V401h-4.4m24.5-52.7h4.4v52.8h-4.4zm20.6 52.8h-4.4v-38h4.4v38zm-4.3-52.8h4.4v6.4h-4.4v-6.4zm16.3 52.8v-38h4.4v6c4.1-4.2 7.5-6.7 13-6.7 7.9 0 11.3 4.5 11.3 12.8v25.9h-4.4v-25.5c0-6.3-1.9-9.7-7.8-9.7-4.7 0-7.3 2.9-12.1 7.2v28h-4.4m61.7-22.4c-.9-7.8-4.3-12.8-11-12.9-7.7-.1-11 7.8-11.1 12.9h22.1m-22.1 3.5c0 8.6 3.6 16.1 12.2 16.1 4.9 0 7.3-1.7 11.1-7.7l3.6 1.9c-4.1 6.7-7.8 9.3-15.1 9.3-9.9 0-16.2-6.4-16.2-19.7 0-11.8 6-19.7 15.6-19.7 10.3 0 15.2 8.1 15.2 19.9h-26.4zm34.6 9.7c3.6 5.1 6.8 6.4 11.8 6.4 4.8 0 8.5-3.1 8.5-7.2 0-11-22.4-4.8-22.4-18.3 0-7.2 5.6-10.4 12.1-10.4 6.4 0 10.4 2.5 13.1 6.9l-3.4 2.3c-2.6-3.5-5.3-5.7-9.9-5.7-4.2 0-7.5 2-7.5 6.6 0 9.3 22.4 3.8 22.4 18.6 0 6.8-6.3 10.7-13.2 10.7-5.8 0-11.1-2.3-14.7-7.7l3.2-2.2"/>
</svg>
