<svg xmlns="http://www.w3.org/2000/svg" version="1.0" viewBox="0 0 200 177.709"><path fill="#cc0001" d="M112.296 175.16c-.889-1.66-1.24-11.71-.998-28.604.204-14.323.185-26.042-.042-26.041-.8.002-16.222 12.1-26.917 21.114-5.943 5.01-15.557 14.07-21.364 20.136-11.228 11.728-14.071 12.92-17.701 7.426-1.75-2.647-1.467-3.222 4.939-10.03 8.449-8.982 25.772-23.646 44.936-38.04 14.702-11.043 20.63-17.24 14.405-15.06-1.633.571-5.235 1.054-8.004 1.073-7.096.048-8.676-3.262-7.716-16.168.889-11.94 2.175-15.607 7.358-20.98 6.978-7.236 13.454-4.098 7.516 3.641-3.156 4.114-4.082 6.953-4.714 14.45-.66 7.839.59 10.377 4.168 8.462 2.953-1.58 3.871-5.385 4.92-20.386.8-11.455 2.61-15.384 7.088-15.384 1.312 0 2.685.782 3.052 1.738.367.957.205 10.11-.36 20.34s-.699 18.6-.297 18.6c.402 0 4.694-2.49 9.537-5.535 4.843-3.044 15.235-9.142 23.094-13.551 11.37-6.38 14-8.364 12.876-9.717-.954-1.15-1.13-5.41-.54-13.144.965-12.659-.062-14.213-5.54-8.382-2.334 2.484-3.01 5.014-3.585 13.413-.515 7.5-1.385 11.21-3.159 13.464-2.544 3.235-6.58 4.112-8.042 1.748-.464-.75-.429-7.71.078-15.465.81-12.397 1.28-14.458 3.888-17.067a10.079 10.079 0 0 1 7.17-2.968c2.733 0 4.721-.834 5.692-2.388.82-1.314 3.268-3.008 5.44-3.765 3.359-1.17 4.32-1.004 6.441 1.117 2.143 2.143 2.494 4.271 2.494 15.13 0 6.951.55 12.978 1.223 13.394.673.416 3.962-.617 7.31-2.296 3.347-1.68 7.172-2.882 8.5-2.673 2.36.371 4.519 2.648 4.558 4.806.046 2.54-7.87 7.999-14.766 10.184-4.103 1.3-12.895 5.259-19.537 8.797a4818.32 4818.32 0 0 1-15.255 8.1c-1.748.917-8.899 5.26-15.89 9.65l-12.712 7.981-.179 22.869c-.098 12.577.433 26.404 1.181 30.726 1.069 6.177 1.006 8.285-.295 9.852-2.4 2.891-8.583 2.55-10.251-.567zM27.89 158.848c-.901-1.46-5.243-26.168-8.377-47.677-3.295-22.611-3.993-23.84-7.523-13.232-1.52 4.564-3.799 9.236-5.066 10.383-2.42 2.191-5.862 1.67-6.904-1.047-.497-1.295 8.33-29.084 12.552-39.515 1.867-4.613 5.475-5.727 8.56-2.642.994.994 2.485 6.286 3.314 11.76.828 5.472 2.422 14.241 3.542 19.485 2.169 10.159 2.465 12.086 2.934 19.068l.298 4.45 1.002-5.086c.552-2.796 1.96-10.519 3.13-17.161 2.802-15.901 10.093-44.373 14.186-55.4 1.795-4.838 5.236-14.219 7.645-20.847C62.69 6.241 65.18 1.974 69.371.5c2.492-.876 4.154-.631 6.606.976 4.887 3.202 4.33 8.163-1.737 15.506-5.499 6.654-13.427 24.687-17.854 40.609-1.555 5.593-3.896 13.03-5.203 16.526-2.484 6.645-4.605 15.378-5.573 22.94-.314 2.453-.84 4.895-1.17 5.428-.329.532-.914 4.378-1.3 8.546-.385 4.168-1.01 9.008-1.386 10.756-.376 1.748-1.56 9.757-2.628 17.797-2.366 17.795-3.297 20.34-7.44 20.34-1.722 0-3.43-.485-3.796-1.076zm24.225-32.936c-1.203-1.947 1.291-30.29 2.936-33.363 3.232-6.036 8.283-7.014 9.28-1.797.905 4.73-2.501 32.232-4.252 34.342-1.563 1.883-6.963 2.438-7.964.818zm18.796-10.61c-1.446-2.34.764-29.506 2.638-32.43 1.48-2.31 11.893-6.849 15.71-6.849.696 0 1.647 1.204 2.114 2.676.643 2.025-.297 3.85-3.866 7.504-4.477 4.585-4.756 5.37-5.55 15.586-.467 5.994-1.6 11.678-2.561 12.836-1.96 2.362-7.186 2.779-8.485.676zm59.3-27.071c-.78-.94-1.158-3.642-.84-6.005.318-2.363.956-8.812 1.416-14.331.693-8.294 1.377-10.574 3.944-13.141 2.587-2.588 3.431-2.836 5.056-1.487 1.317 1.093 1.726 2.883 1.257 5.513-.381 2.143-.792 8.472-.912 14.065-.263 12.264-.486 12.95-4.97 15.268-2.951 1.526-3.766 1.546-4.95.118zM59.452 75.473c-2.178-1.593-2.186-1.862-.15-4.971 3.056-4.662 6.577-6.343 8.483-4.047 2.002 2.413.635 6.336-3.05 8.75-2.5 1.638-3.35 1.681-5.283.268zm75.735-34.379c0-3.579 5.218-7.73 8.253-6.565 4.637 1.78.15 9.714-5.493 9.714-2.09 0-2.76-.765-2.76-3.149z"/></svg>
