<svg xmlns="http://www.w3.org/2000/svg" fill="none" viewBox="0 0 40 25">
  <path fill="#4AF6CD" d="m26.358 4.754.262-.236c.175-.155.345-.313.51-.469.162-.166.353-.276.521-.417.173-.135.34-.274.509-.399.35-.224.676-.472 1.007-.662.33-.184.638-.387.944-.525l.434-.224.409-.181c.52-.241.95-.388 1.247-.496.297-.096.457-.146.457-.146l.015-.005a.18.18 0 0 0 .116-.116.181.181 0 0 0-.116-.226s-.18-.057-.509-.117C32 .51 31.792.47 31.551.454c-.243-.02-.525-.05-.84-.04-.158.002-.325-.002-.5.008l-.547.05c-.386.027-.79.115-1.23.204-.224.037-.442.107-.67.177l-.706.22c-.462.194-.968.386-1.46.649-.242.136-.492.278-.743.429l-.38.228-.363.264c-.24.184-.487.37-.738.56-.26.183-.465.42-.703.638l-.701.685a30.12 30.12 0 0 0-.63.771c-.205.266-.428.53-.617.812-.181.287-.352.585-.53.882-.168.304-.356.595-.506.918-.146.329-.282.665-.42 1.002-.138.336-.276.675-.404 1.016l-.268.954-.269.96-.151.53-.118.436c-.042.147-.075.295-.122.44l-.157.423-.159.427c-.054.142-.124.274-.186.414a12.422 12.422 0 0 1-1.974 3.037 14.838 14.838 0 0 1-2.693 2.38c-.976.677-2.008 1.22-3.022 1.678a23.313 23.313 0 0 1-2.967 1.082 30.126 30.126 0 0 1-4.696.962 18.65 18.65 0 0 1-1.823.155.175.175 0 0 0-.17.151.174.174 0 0 0 .151.195h.004s.68.086 1.87.11c.595.014 1.32.008 2.152-.044a26.64 26.64 0 0 0 2.791-.306c2.031-.342 4.422-.962 6.775-2.242 1.174-.637 2.338-1.436 3.375-2.434a15.047 15.047 0 0 0 2.694-3.444c.092-.161.191-.317.276-.482l.245-.495c.164-.331.324-.665.457-1.006l.209-.51.052-.128.026-.063.007-.017-.017.051.012-.028.098-.23.395-.917.394-.909c.148-.253.285-.505.42-.756.134-.251.27-.499.392-.752.138-.247.302-.487.447-.73.144-.244.289-.485.424-.729.15-.233.314-.449.463-.673.157-.221.296-.45.448-.668l.485-.607.238-.301c.076-.103.154-.203.242-.288.172-.18.34-.359.506-.535l.239-.264Z"/>
  <path fill="#4AF6CD" fill-rule="evenodd" d="M38.83 23.451c.636.284 1.007.422 1.007.422.063.023.097.093.072.153a.125.125 0 0 1-.138.077s-.398-.077-1.08-.251a26.811 26.811 0 0 1-2.792-.893l-.275-.107a27.473 27.473 0 0 1-.609-.242l-.433-.19a38.979 38.979 0 0 1-.503-.22l-.37-.181-.602-.298-.74-.416-.253-.141-.318-.203a226.16 226.16 0 0 0-.682-.434 27.095 27.095 0 0 1-.704-.521l-.28-.212-.503-.44-.445-.391a63.028 63.028 0 0 0-.267-.281 32.266 32.266 0 0 1-.617-.657l-.404-.516-.201-.26-.103-.13-.025-.031-.013-.017-.003-.005s.017.031-.03-.05l-.006-.008-.041-.063-.326-.5a4.583 4.583 0 0 0-.1-.154 2.476 2.476 0 0 1-.224-.382l-.153-.306c-.161-.317-.324-.637-.41-.964l-.044-.13a7.33 7.33 0 0 1-.156-.514l-.046-.285-.062-.389-.016-.13a2.357 2.357 0 0 1-.022-.206l.003-.342.006-.194c.003-.161.007-.321.032-.48.028-.174.064-.343.1-.511l.032-.15a2.13 2.13 0 0 1 .137-.42c.028-.07.055-.137.079-.205l.12-.299c.028-.064.065-.126.102-.187.02-.03.038-.061.055-.092l.1-.164c.075-.126.148-.25.234-.363l.032-.038c.256-.3.5-.586.798-.798.216-.196.468-.329.705-.454.067-.036.133-.07.197-.106.113-.05.228-.089.34-.126l.12-.04.044-.016a1.77 1.77 0 0 1 .392-.1 3.723 3.723 0 0 1 1.465-.006c.196.042.364.088.507.13a6.647 6.647 0 0 1 .623.304c.06.035.08.111.045.171a.122.122 0 0 1-.09.062l-.017.003-.29.043a4.4 4.4 0 0 1-.33.043l-.133.039c-.091.026-.189.055-.29.08a1.299 1.299 0 0 0-.328.12c-.051.023-.103.048-.156.069a1.48 1.48 0 0 0-.338.176 3.344 3.344 0 0 1-.17.103c-.117.07-.226.163-.336.256-.053.045-.106.09-.16.133a3.386 3.386 0 0 1-.154.168c-.1.106-.2.21-.278.344-.276.36-.466.813-.572 1.303a1.524 1.524 0 0 1-.03.136.912.912 0 0 0-.038.24l-.007.09c-.007.101-.014.204-.028.306-.007.073-.002.15.002.227.003.063.007.126.005.188v.053c0 .052 0 .105-.002.158.002.05.01.1.018.151l.01.067.023.233.02.214c.037.151.07.306.1.462.03.21.088.399.147.591.032.107.066.214.094.327.017.102.077.233.138.364l.07.154.246.544.03.068.003.005.003.007.069.116.14.23.28.465.378.495.292.38.758.819c.273.254.543.507.813.756l.28.234.563.466.859.637c.29.197.577.39.854.576l.833.519c.173.103.344.2.512.296a28.81 28.81 0 0 0 1.72.907c.436.212.818.388 1.136.529Zm-9.51-7.466c0-.001 0-.002-.002-.002l.009.014.003.004a.252.252 0 0 1-.01-.017Z" clip-rule="evenodd"/>
  <path fill="#4AF6CD" d="M31.488 2.852c-.782.161-1.275.366-1.275.366a.09.09 0 0 0-.057.081.086.086 0 0 0 .087.088c.001 0 .517.004 1.276.092.38.036.815.113 1.274.193.457.103.94.196 1.404.342.117.04.233.072.346.115l.33.146c.22.095.426.2.634.271.211.063.416.118.617.155l.583.093c.185.028.364.038.527.046.158.017.304.027.429.027.251.005.417-.013.417-.013l.007-.002.023-.005a.11.11 0 0 0 .065-.14s-.055-.151-.19-.374a3.516 3.516 0 0 0-.267-.385 3.625 3.625 0 0 0-.416-.416 3.758 3.758 0 0 0-.26-.213c-.096-.06-.192-.128-.298-.186a2.602 2.602 0 0 0-.69-.31 3.202 3.202 0 0 0-.796-.129c-.275-.025-.55-.036-.825-.05-.272-.024-.545-.021-.81-.026-.267-.007-.53.02-.78.033-.253.03-.493.043-.72.085-.226.038-.439.075-.635.116Zm5.622 6.151c.166.074.295.157.425.217.238.133.404.213.404.213l.01.005c.013.007.028.01.045.01a.1.1 0 0 0 .096-.101l-.003-.128c-.005-.084-.01-.208-.044-.36-.036-.147-.08-.335-.172-.528a3.073 3.073 0 0 0-.358-.625 6.06 6.06 0 0 0-.257-.318c-.099-.098-.197-.207-.308-.304a3.58 3.58 0 0 0-.753-.525 4.275 4.275 0 0 0-.904-.326c-.314-.085-.632-.151-.944-.224a12.705 12.705 0 0 0-1.837-.293 15.37 15.37 0 0 0-1.6-.06c-.932.012-1.545.105-1.545.105a.09.09 0 0 0-.075.07.088.088 0 0 0 .07.103s.6.115 1.476.346c.437.113.94.26 1.47.435.264.085.531.188.804.284.27.1.54.21.803.328.263.12.517.256.751.406.238.147.459.299.682.422.223.121.437.227.651.32l.595.278c.19.09.364.175.517.25Zm-.928 2.086a2.318 2.318 0 0 0-.253-.386 1.619 1.619 0 0 0-.364-.34c-.14-.1-.31-.16-.477-.225-.17-.056-.34-.111-.505-.173a7.088 7.088 0 0 0-.981-.274 7.55 7.55 0 0 0-.866-.128c-.505-.052-.848-.03-.848-.03a.076.076 0 0 0-.061.042.072.072 0 0 0 .035.096s.3.141.733.367c.214.118.458.26.714.414l.384.243c.132.08.256.173.383.26.121.092.237.194.344.299.1.11.208.207.31.29.102.083.225.138.335.195.108.058.226.1.334.143.103.045.21.081.312.111.103.03.185.065.266.087.16.048.276.068.276.068l.005.001a.096.096 0 0 0 .112-.076s.02-.11.008-.29a1.547 1.547 0 0 0-.05-.32 2.535 2.535 0 0 0-.146-.374Z"/>
</svg>