<svg xmlns="http://www.w3.org/2000/svg" fill="none" viewBox="0 0 26 24">
  <path fill="#4AF6CD" d="M17.334 8.71H0v2.166h17.334A5.423 5.423 0 0 0 22.75 5.46 5.423 5.423 0 0 0 17.334.044a5.423 5.423 0 0 0-5.417 5.416h2.167a3.254 3.254 0 0 1 3.25-3.25 3.254 3.254 0 0 1 3.25 3.25 3.254 3.254 0 0 1-3.25 3.25Zm3.25 4.334H0v2.166h20.584a3.254 3.254 0 0 1 3.25 3.25 3.254 3.254 0 0 1-3.25 3.25 3.254 3.254 0 0 1-3.25-3.25h-2.167a5.423 5.423 0 0 0 5.417 5.416A5.423 5.423 0 0 0 26 18.46a5.423 5.423 0 0 0-5.416-5.416Z"/>
</svg>